<?xml version="1.0" encoding="utf-8"?>
<!-- Generator: Adobe Illustrator 25.2.1, SVG Export Plug-In . SVG Version: 6.00 Build 0)  -->
<svg version="1.1" id="Layer_1" xmlns="http://www.w3.org/2000/svg" xmlns:xlink="http://www.w3.org/1999/xlink" x="0px" y="0px"
	 viewBox="0 0 1000 1000" style="enable-background:new 0 0 1000 1000;" xml:space="preserve">
<style type="text/css">
	.st0{fill:#FFFFFF;}
</style>
<g>
	<g>
		<g>
			<path class="st0" d="M217.75,609.66c0,29.08,23.37,44.25,55.93,44.25c46.48,0,79.55-30.58,79.55-70.6V542.8
				c-12.68,8.45-50.46,13.92-73.58,17.15C242.36,565.17,217.75,579.83,217.75,609.66z"/>
			<path class="st0" d="M691.6,417.26c-51.46,0-80.29,43.5-80.29,111.61c0,68.11,29.33,112.86,80.29,112.86
				c51.95,0,80.29-46.24,80.29-112.86C771.89,462.75,744.05,417.26,691.6,417.26z"/>
			<path class="st0" d="M500,0C223.86,0,0,223.86,0,500s223.86,500,500,500s500-223.86,500-500S776.14,0,500,0z M458.38,719.79
				H357.95v-52.95h-2.98c-18.64,35.55-55.19,60.16-111.61,60.16c-72.83,0-126.78-38.28-126.78-113.85
				c0-85.26,67.86-110.62,143.43-117.58c66.37-6.46,92.47-9.69,92.47-34.3v-1.49c0-31.32-20.63-49.47-56.68-49.47
				c-38.03,0-60.65,18.64-67.86,44l-97.94-7.95c14.67-69.6,74.82-113.35,166.3-113.35c85.01,0,162.07,38.28,162.07,129.26V719.79z
				 M725.16,726c-61.65,0-93.71-35.55-108.38-67.37h-4.72v61.15h-104.4V210.69h105.89V402.1h3.23
				c14.17-31.07,44.75-69.11,108.63-69.11c83.77,0,154.62,65.13,154.62,196.38C880.03,657.14,812.16,726,725.16,726z"/>
		</g>
	</g>
</g>
</svg>
